<svg viewBox="0 0 16 16" height="16" width="16" xmlns="http://www.w3.org/2000/svg" xml:space="preserve" style="fill-rule:evenodd;clip-rule:evenodd;stroke-linejoin:round;stroke-miterlimit:2"><path d="M7 17h2v-7H7v7Zm4 0h2V7h-2v10Zm4 0h2v-4h-2v4ZM5 21c-.55 0-1.021-.196-1.412-.587A1.927 1.927 0 0 1 3 19V5c0-.55.196-1.021.588-1.413A1.926 1.926 0 0 1 5 3h14c.55 0 1.021.196 1.413.587.391.392.587.863.587 1.413v14a1.93 1.93 0 0 1-.587 1.413A1.93 1.93 0 0 1 19 21H5Z" style="fill-rule:nonzero" transform="matrix(.77778 0 0 .77778 -1.333 -1.333)"/></svg>